<mxfile host="app.diagrams.net" agent="Mozilla/5.0 (Macintosh; Intel Mac OS X 10_15_7) AppleWebKit/537.36 (KHTML, like Gecko) Chrome/135.0.0.0 Safari/537.36" version="26.2.8">
  <diagram name="第 1 页" id="OCh4iM6ZjwlL9nyDyv9F">
    <mxGraphModel dx="1020" dy="689" grid="1" gridSize="10" guides="1" tooltips="1" connect="1" arrows="1" fold="1" page="1" pageScale="1" pageWidth="827" pageHeight="1169" math="0" shadow="0">
      <root>
        <mxCell id="0" />
        <mxCell id="1" parent="0" />
        <mxCell id="8aknWjCGlLNLQxP2Ryq8-14" value="" style="rounded=0;whiteSpace=wrap;html=1;fillColor=#ffe6cc;strokeColor=#d79b00;" vertex="1" parent="1">
          <mxGeometry x="270" y="230" width="280" height="230" as="geometry" />
        </mxCell>
        <mxCell id="8aknWjCGlLNLQxP2Ryq8-6" value="" style="edgeStyle=orthogonalEdgeStyle;rounded=0;orthogonalLoop=1;jettySize=auto;html=1;" edge="1" parent="1" source="8aknWjCGlLNLQxP2Ryq8-1">
          <mxGeometry relative="1" as="geometry">
            <mxPoint x="270" y="340" as="targetPoint" />
          </mxGeometry>
        </mxCell>
        <mxCell id="8aknWjCGlLNLQxP2Ryq8-1" value="RD" style="shape=umlActor;verticalLabelPosition=bottom;verticalAlign=top;html=1;outlineConnect=0;" vertex="1" parent="1">
          <mxGeometry x="90" y="310" width="30" height="60" as="geometry" />
        </mxCell>
        <mxCell id="8aknWjCGlLNLQxP2Ryq8-8" value="1、docker run hello" style="text;html=1;align=center;verticalAlign=middle;whiteSpace=wrap;rounded=0;" vertex="1" parent="1">
          <mxGeometry x="130" y="310" width="130" height="30" as="geometry" />
        </mxCell>
        <mxCell id="8aknWjCGlLNLQxP2Ryq8-9" value="" style="rounded=1;whiteSpace=wrap;html=1;fillColor=#dae8fc;strokeColor=#6c8ebf;" vertex="1" parent="1">
          <mxGeometry x="300" y="260" width="220" height="70" as="geometry" />
        </mxCell>
        <mxCell id="8aknWjCGlLNLQxP2Ryq8-25" style="edgeStyle=orthogonalEdgeStyle;rounded=0;orthogonalLoop=1;jettySize=auto;html=1;entryX=0.5;entryY=0;entryDx=0;entryDy=0;" edge="1" parent="1" source="8aknWjCGlLNLQxP2Ryq8-10" target="8aknWjCGlLNLQxP2Ryq8-21">
          <mxGeometry relative="1" as="geometry" />
        </mxCell>
        <mxCell id="8aknWjCGlLNLQxP2Ryq8-10" value="docker服务端" style="text;html=1;align=center;verticalAlign=middle;whiteSpace=wrap;rounded=0;" vertex="1" parent="1">
          <mxGeometry x="316" y="280" width="80" height="30" as="geometry" />
        </mxCell>
        <mxCell id="8aknWjCGlLNLQxP2Ryq8-13" value="hello镜像" style="ellipse;whiteSpace=wrap;html=1;aspect=fixed;" vertex="1" parent="1">
          <mxGeometry x="426" y="265" width="60" height="60" as="geometry" />
        </mxCell>
        <mxCell id="8aknWjCGlLNLQxP2Ryq8-18" style="edgeStyle=orthogonalEdgeStyle;rounded=0;orthogonalLoop=1;jettySize=auto;html=1;" edge="1" parent="1" source="8aknWjCGlLNLQxP2Ryq8-15" target="8aknWjCGlLNLQxP2Ryq8-9">
          <mxGeometry relative="1" as="geometry" />
        </mxCell>
        <mxCell id="8aknWjCGlLNLQxP2Ryq8-15" value="" style="shape=cylinder3;whiteSpace=wrap;html=1;boundedLbl=1;backgroundOutline=1;size=15;fillColor=#f8cecc;strokeColor=#b85450;" vertex="1" parent="1">
          <mxGeometry x="690" y="290" width="90" height="110" as="geometry" />
        </mxCell>
        <mxCell id="8aknWjCGlLNLQxP2Ryq8-16" value="docker仓库" style="text;html=1;align=center;verticalAlign=middle;whiteSpace=wrap;rounded=0;" vertex="1" parent="1">
          <mxGeometry x="695" y="420" width="80" height="30" as="geometry" />
        </mxCell>
        <mxCell id="8aknWjCGlLNLQxP2Ryq8-17" value="hello镜像" style="ellipse;whiteSpace=wrap;html=1;aspect=fixed;" vertex="1" parent="1">
          <mxGeometry x="705" y="325" width="60" height="60" as="geometry" />
        </mxCell>
        <mxCell id="8aknWjCGlLNLQxP2Ryq8-19" value="2、从docker hub拉取hello镜像(如果本地不存在)" style="text;html=1;align=center;verticalAlign=middle;whiteSpace=wrap;rounded=0;" vertex="1" parent="1">
          <mxGeometry x="565" y="270" width="145" height="25" as="geometry" />
        </mxCell>
        <mxCell id="8aknWjCGlLNLQxP2Ryq8-20" value="宿主机" style="text;html=1;align=center;verticalAlign=middle;whiteSpace=wrap;rounded=0;" vertex="1" parent="1">
          <mxGeometry x="366" y="470" width="60" height="30" as="geometry" />
        </mxCell>
        <mxCell id="8aknWjCGlLNLQxP2Ryq8-21" value="" style="rounded=0;whiteSpace=wrap;html=1;fillColor=#d5e8d4;strokeColor=#82b366;" vertex="1" parent="1">
          <mxGeometry x="306" y="360" width="100" height="90" as="geometry" />
        </mxCell>
        <mxCell id="8aknWjCGlLNLQxP2Ryq8-22" value="hello镜像" style="ellipse;whiteSpace=wrap;html=1;aspect=fixed;" vertex="1" parent="1">
          <mxGeometry x="336" y="370" width="60" height="60" as="geometry" />
        </mxCell>
        <mxCell id="8aknWjCGlLNLQxP2Ryq8-23" value="容器" style="text;html=1;align=center;verticalAlign=middle;whiteSpace=wrap;rounded=0;" vertex="1" parent="1">
          <mxGeometry x="300" y="420" width="60" height="30" as="geometry" />
        </mxCell>
        <mxCell id="8aknWjCGlLNLQxP2Ryq8-26" value="3、在容器中运行应用" style="text;html=1;align=center;verticalAlign=middle;whiteSpace=wrap;rounded=0;" vertex="1" parent="1">
          <mxGeometry x="360" y="330" width="85" height="30" as="geometry" />
        </mxCell>
      </root>
    </mxGraphModel>
  </diagram>
</mxfile>
